<svg xmlns="http://www.w3.org/2000/svg" width="1024" height="1024" viewBox="0 0 1024 1024" role="img">
<defs></defs>

<path d="M155 520 C300 355 440 355 512 500 C584 355 724 355 869 520 C740 475 640 505 555 620 C535 650 489 650 469 620 C384 505 284 475 155 520Z" fill="#dbeafe" stroke="#273043" stroke-width="22" stroke-linecap="round" stroke-linejoin="round" />
<ellipse cx="512" cy="548" rx="115" ry="92" fill="#ffffff" stroke="#273043" stroke-width="18" stroke-linecap="round" stroke-linejoin="round" />
<circle cx="592" cy="510" r="34" fill="#ffffff" stroke="#273043" stroke-width="14" />
<path d="M622 508 L710 480 L642 548Z" fill="#fde047" stroke="#273043" stroke-width="12" stroke-linecap="round" stroke-linejoin="round" />
<circle cx="600" cy="502" r="8" fill="#273043" stroke="#273043" stroke-width="4" />
<path d="M450 620 L420 672 M525 630 L500 688" fill="none" stroke="#f97316" stroke-width="16" stroke-linecap="round" stroke-linejoin="round" />
<ellipse cx="506" cy="720" rx="205" ry="30" fill="rgba(39,48,67,0.12)" stroke="none" stroke-width="0" stroke-linecap="round" stroke-linejoin="round" />

</svg>
